<?xml version="1.0" encoding="UTF-8"?>
<svg id="Layer_1" xmlns="http://www.w3.org/2000/svg" version="1.1" viewBox="0 0 100 100">
  <!-- Generator: Adobe Illustrator 29.3.1, SVG Export Plug-In . SVG Version: 2.1.0 Build 151)  -->
  <defs>
    <style>
      .st0 {
        fill: #17a5de;
      }
    </style>
  </defs>
  <path class="st0" d="M26.1,7.2h46.4c5.4,0,9.8,4.4,9.8,9.8h0c0,5.4-4.4,9.8-9.8,9.8H26.1c-5.4,0-9.8-4.4-9.8-9.8h0c0-5.4,4.4-9.8,9.8-9.8Z"/>
  <rect class="st0" x="27.3" y="40.2" width="69.2" height="19.6" rx="9.8" ry="9.8"/>
  <path class="st0" d="M13.7,73.3h50.2c5.4,0,9.8,4.4,9.8,9.8h0c0,5.4-4.4,9.8-9.8,9.8H13.7c-5.4,0-9.8-4.4-9.8-9.8h0c0-5.4,4.4-9.8,9.8-9.8Z"/>
</svg>